<?xml version="1.0" encoding="utf-8"?>
<!-- Generator: Adobe Illustrator 16.0.0, SVG Export Plug-In . SVG Version: 6.00 Build 0)  -->
<!DOCTYPE svg PUBLIC "-//W3C//DTD SVG 1.1//EN" "http://www.w3.org/Graphics/SVG/1.1/DTD/svg11.dtd">
<svg version="1.1" id="MAP" xmlns="http://www.w3.org/2000/svg" xmlns:xlink="http://www.w3.org/1999/xlink" x="0px" y="0px"
	 width="841.89px" height="841.89px" viewBox="0 0 841.89 841.89" enable-background="new 0 0 841.89 841.89" xml:space="preserve">
<polygon stroke="#FFFFFF" stroke-width="2" stroke-linecap="round" stroke-linejoin="round" stroke-miterlimit="10" points="
	381.193,428.351 398.926,438.459 388.807,456.194 371.081,446.09 381.2,428.355 "/>
<polygon stroke="#FFFFFF" stroke-width="2" stroke-linecap="round" stroke-linejoin="round" stroke-miterlimit="10" points="
	487.564,488.973 558.461,529.417 507.928,618.069 437.01,577.645 447.135,559.897 500.307,590.232 530.646,537.06 477.451,506.7 
	487.57,488.977 "/>
<polygon id="_x31_8" stroke="#FFFFFF" stroke-width="2" stroke-linecap="round" stroke-linejoin="round" stroke-miterlimit="10" points="
	558.434,364.942 629.33,405.387 578.797,494.04 507.879,453.615 518.004,435.867 571.176,466.203 601.516,413.03 548.32,382.67 
	558.439,364.947 "/>
<polyline id="_x31_7" stroke="#FFFFFF" stroke-width="2" stroke-linecap="round" stroke-linejoin="round" stroke-miterlimit="10" points="
	614.033,561.051 593.939,549.593 563.607,602.813 584.285,614.6 614.627,561.389 "/>
<polyline id="_x31_6" stroke="#FFFFFF" stroke-width="2" stroke-linecap="round" stroke-linejoin="round" stroke-miterlimit="10" points="
	725.359,319.043 746.041,330.833 634.818,525.954 614.141,514.155 725.359,319.043 "/>
<polygon id="_x34_2" stroke="#FFFFFF" stroke-width="2" stroke-linecap="round" stroke-linejoin="round" stroke-miterlimit="10" points="
	366.78,621.768 354.645,616.028 344.45,610.676 331.191,602.936 320.917,596.283 312.388,590.2 302.229,608.032 308.717,612.676 
	320.435,620.291 333.048,627.707 345.485,634.287 359.79,641.02 371.688,645.981 386.343,651.338 398.834,655.278 413,659.08 
	426.703,662.105 441.725,664.706 455.416,666.441 457.553,646.06 443.705,644.292 430.678,642.022 418.032,639.244 404.59,635.651 
	392.192,631.731 379.176,626.964 "/>
<polyline id="_x36_" stroke="#FFFFFF" stroke-width="2" stroke-linecap="round" stroke-linejoin="round" stroke-miterlimit="10" points="
	686.545,304.728 641.943,294.177 619.396,309.297 672.811,328.819 686.52,304.772 "/>
<polygon id="_x35_" stroke="#FFFFFF" stroke-width="2" stroke-linecap="round" stroke-linejoin="round" stroke-miterlimit="10" points="
	621.82,335.86 606.76,361.16 571.79,341.23 594.63,325.91 610.76,331.81 "/>
<polygon stroke="#FFFFFF" stroke-width="2" stroke-linecap="round" stroke-linejoin="round" stroke-miterlimit="10" points="
	312.388,590.2 309.006,587.789 296.963,578.255 296.125,577.527 285.859,595.545 286.182,595.823 296.739,604.104 302.229,608.032 
	"/>
<polygon stroke="#FFFFFF" stroke-width="2" stroke-linecap="round" stroke-linejoin="round" stroke-miterlimit="10" points="
	190.779,376.323 171.208,384.749 171.965,391.367 174.106,404.954 174.943,409.063 194.139,400.854 192.171,388.623 "/>
<polygon stroke="#FFFFFF" stroke-width="2" stroke-linecap="round" stroke-linejoin="round" stroke-miterlimit="10" points="
	189.485,349.933 189.675,336.921 190.395,324.685 191.68,311.949 193.291,300.609 195.767,287.229 198.68,274.634 201.906,262.936 
	205.806,250.792 210.057,239.239 214.936,227.514 220.161,216.304 225.879,205.257 232.135,194.318 214.669,183.823 
	208.255,195.013 201.881,207.296 196.49,218.834 191.083,231.793 186.326,244.758 182.374,257.105 178.946,269.518 175.812,283.056 
	173.217,297.03 171.443,309.461 170.077,322.972 169.299,336.137 169.07,350.292 169.393,362.897 170.447,378.101 171.208,384.749 
	190.779,376.323 190.683,375.466 189.765,361.972 "/>
<polygon stroke="#FFFFFF" stroke-width="2" stroke-linecap="round" stroke-linejoin="round" stroke-miterlimit="10" points="
	259.98,541.35 244.37,554.48 236.2,544.42 228.24,533.71 220.1,521.69 213.13,510.38 206.04,497.65 199.51,484.57 194.12,472.48 
	194.11,472.46 212.91,464.57 207.97,452.06 203.85,440.12 200.41,428.48 196.95,414.97 194.84,404.77 194.52,403.23 194.14,400.85 
	194.17,400.84 194.55,403.23 196.98,414.97 200.44,428.49 203.88,440.12 208,452.06 212.94,464.57 218.24,476.44 224.1,488.14 
	230.62,499.85 237.26,510.65 244.9,521.92 252.33,531.92 "/>
<polyline stroke="#FFFFFF" stroke-width="2" stroke-linecap="round" stroke-linejoin="round" stroke-miterlimit="10" points="
	237.662,356.14 221.546,318.706 206.006,325.394 222.075,362.85 237.663,356.141 "/>
<polyline stroke="#FFFFFF" stroke-width="2" stroke-linecap="round" stroke-linejoin="round" stroke-miterlimit="10" points="
	275.137,340.012 242.977,265.168 227.433,271.858 259.548,346.718 275.14,340.018 "/>
<polyline stroke="#FFFFFF" stroke-width="2" stroke-linecap="round" stroke-linejoin="round" stroke-miterlimit="10" points="
	297.026,330.598 312.598,323.879 264.505,211.529 248.927,218.235 297.021,330.585 "/>
<polyline stroke="#FFFFFF" stroke-width="2" stroke-linecap="round" stroke-linejoin="round" stroke-miterlimit="10" points="
	337.651,313.152 356.862,306.262 315.528,191.017 296.327,197.901 337.651,313.152 "/>
<polyline stroke="#FFFFFF" stroke-width="2" stroke-linecap="round" stroke-linejoin="round" stroke-miterlimit="10" points="
	376.494,299.627 396.329,294.818 377.104,215.492 357.269,220.301 376.5,299.625 "/>
<rect x="413.5" y="248.38" transform="matrix(0.9913 -0.1317 0.1317 0.9913 -31.7037 58.133)" stroke="#FFFFFF" stroke-width="2" stroke-linecap="round" stroke-linejoin="round" stroke-miterlimit="10" width="20.41" height="40.811"/>
<polygon stroke="#FFFFFF" stroke-width="2" stroke-linecap="round" stroke-linejoin="round" stroke-miterlimit="10" points="
	416.625,448.536 434.359,458.645 424.24,476.379 406.514,466.275 416.633,448.54 "/>
<polygon stroke="#FFFFFF" stroke-width="2" stroke-linecap="round" stroke-linejoin="round" stroke-miterlimit="10" points="
	452.072,468.756 469.807,478.864 459.686,496.599 441.961,486.495 452.08,468.76 "/>
<polygon stroke="#FFFFFF" stroke-width="2" stroke-linecap="round" stroke-linejoin="round" stroke-miterlimit="10" points="
	449.574,514.317 467.309,524.425 457.189,542.16 439.463,532.056 449.582,514.321 "/>
<polygon stroke="#FFFFFF" stroke-width="2" stroke-linecap="round" stroke-linejoin="round" stroke-miterlimit="10" points="
	414.137,494.106 431.871,504.214 421.751,521.949 404.026,511.845 414.145,494.11 "/>
<polygon stroke="#FFFFFF" stroke-width="2" stroke-linecap="round" stroke-linejoin="round" stroke-miterlimit="10" points="
	378.682,473.896 396.417,484.003 386.296,501.738 368.571,491.635 378.69,473.899 "/>
<polygon stroke="#FFFFFF" stroke-width="2" stroke-linecap="round" stroke-linejoin="round" stroke-miterlimit="10" points="
	343.227,453.685 360.96,463.792 350.841,481.527 333.115,471.424 343.234,453.688 "/>
<polygon stroke="#FFFFFF" stroke-width="2" stroke-linecap="round" stroke-linejoin="round" stroke-miterlimit="10" points="
	305.28,479.048 323.014,489.156 312.895,506.891 295.168,496.787 305.288,479.053 "/>
<polygon stroke="#FFFFFF" stroke-width="2" stroke-linecap="round" stroke-linejoin="round" stroke-miterlimit="10" points="
	340.763,499.275 358.497,509.383 348.377,527.118 330.651,517.014 340.771,499.279 "/>
<polygon stroke="#FFFFFF" stroke-width="2" stroke-linecap="round" stroke-linejoin="round" stroke-miterlimit="10" points="
	376.178,519.463 393.911,529.57 383.792,547.306 366.065,537.201 376.185,519.467 "/>
<polygon stroke="#FFFFFF" stroke-width="2" stroke-linecap="round" stroke-linejoin="round" stroke-miterlimit="10" points="
	411.65,539.674 429.383,549.781 419.264,567.517 401.538,557.412 411.658,539.678 "/>
<polygon stroke="#FFFFFF" stroke-width="2" stroke-linecap="round" stroke-linejoin="round" stroke-miterlimit="10" points="
	409.157,585.247 426.891,595.354 416.77,613.09 399.044,602.986 409.164,585.251 "/>
<polygon stroke="#FFFFFF" stroke-width="2" stroke-linecap="round" stroke-linejoin="round" stroke-miterlimit="10" points="
	373.708,565.042 391.442,575.149 381.323,592.885 363.596,582.78 373.716,565.046 "/>
<polygon stroke="#FFFFFF" stroke-width="2" stroke-linecap="round" stroke-linejoin="round" stroke-miterlimit="10" points="
	338.249,544.826 355.982,554.935 345.862,572.669 328.136,562.565 338.256,544.831 "/>
<polygon stroke="#FFFFFF" stroke-width="2" stroke-linecap="round" stroke-linejoin="round" stroke-miterlimit="10" points="
	302.797,524.608 320.531,534.716 310.412,552.451 292.686,542.347 302.805,524.612 "/>
<polygon stroke="#FFFFFF" stroke-width="2" stroke-linecap="round" stroke-linejoin="round" stroke-miterlimit="10" points="
	482.396,415.564 500.131,425.673 490.012,443.407 472.285,433.304 482.404,415.568 "/>
<polygon stroke="#FFFFFF" stroke-width="2" stroke-linecap="round" stroke-linejoin="round" stroke-miterlimit="10" points="
	446.947,395.357 464.682,405.465 454.563,423.2 436.836,413.096 446.955,395.361 "/>
<polygon stroke="#FFFFFF" stroke-width="2" stroke-linecap="round" stroke-linejoin="round" stroke-miterlimit="10" points="
	484.936,370.025 502.668,380.134 492.549,397.869 474.822,387.765 484.943,370.03 "/>
<polygon stroke="#FFFFFF" stroke-width="2" stroke-linecap="round" stroke-linejoin="round" stroke-miterlimit="10" points="
	520.344,390.2 538.078,400.309 527.959,418.044 510.232,407.939 520.352,390.205 "/>
<polygon stroke="#FFFFFF" stroke-width="2" stroke-linecap="round" stroke-linejoin="round" stroke-miterlimit="10" points="
	522.842,344.628 540.576,354.736 530.455,372.471 512.73,362.367 522.85,344.632 "/>
<polygon stroke="#FFFFFF" stroke-width="2" stroke-linecap="round" stroke-linejoin="round" stroke-miterlimit="10" points="
	476.684,264.405 477.221,284.81 456.816,285.34 456.279,264.941 "/>
<rect x="498.438" y="265.069" transform="matrix(-0.9968 -0.0795 0.0795 -0.9968 993.7898 590.11)" stroke="#FFFFFF" stroke-width="2" stroke-linecap="round" stroke-linejoin="round" stroke-miterlimit="10" width="20.408" height="20.404"/>
<polygon stroke="#FFFFFF" stroke-width="2" stroke-linecap="round" stroke-linejoin="round" stroke-miterlimit="10" points="
	542.107,268.183 562.232,271.606 558.406,292.002 538.348,288.238 "/>
<polygon stroke="#FFFFFF" stroke-width="2" stroke-linecap="round" stroke-linejoin="round" stroke-miterlimit="10" points="
	188.96,459.44 194.11,472.46 194.09,472.47 188.93,459.43 184.41,446.36 180.24,432.31 177.04,419.49 175.38,411.34 174.07,404.95 
	171.93,391.37 170.41,378.1 169.36,362.9 169.04,350.29 169.27,336.14 189.67,336.94 189.48,349.95 189.76,361.99 190.68,375.48 
	192.17,388.64 194.14,400.85 174.94,409.06 177.07,419.49 180.27,432.31 184.44,446.36 "/>
<polygon stroke="#FFFFFF" stroke-width="2" stroke-linecap="round" stroke-linejoin="round" stroke-miterlimit="10" points="
	212.91,464.57 194.11,472.46 188.96,459.44 184.44,446.36 180.27,432.31 177.07,419.49 174.94,409.06 194.14,400.85 194.52,403.23 
	194.84,404.77 196.95,414.97 200.41,428.48 203.85,440.12 207.97,452.06 "/>
<polygon stroke="#FFFFFF" stroke-width="2" stroke-linecap="round" stroke-linejoin="round" stroke-miterlimit="10" points="
	169.267,336.063 189.674,336.867 189.675,336.849 190.395,324.611 191.68,311.876 193.291,300.536 195.767,287.157 198.68,274.562 
	201.906,262.863 205.806,250.719 210.057,239.166 214.936,227.441 220.161,216.231 225.879,205.185 232.135,194.245 214.669,183.75 
	208.255,194.94 201.881,207.224 196.49,218.761 191.083,231.72 186.326,244.686 182.374,257.033 178.946,269.445 175.812,282.982 
	173.217,296.958 171.443,309.388 170.077,322.899 169.299,336.064 "/>
<polygon stroke="#FFFFFF" stroke-width="2" stroke-linecap="round" stroke-linejoin="round" stroke-miterlimit="10" points="
	244.373,554.484 245.15,555.441 254.213,565.656 264.54,576.301 274.639,585.816 286.231,595.781 296.789,604.063 308.766,612.635 
	320.484,620.249 333.097,627.665 345.534,634.246 345.997,634.464 354.694,615.987 344.499,610.634 331.241,602.894 
	320.967,596.242 309.056,587.747 297.013,578.213 288.318,570.67 278.924,561.823 269.195,551.8 260.448,541.927 259.977,541.347 
	"/>
<path stroke="#FFFFFF" stroke-width="2" stroke-linecap="round" stroke-linejoin="round" stroke-miterlimit="10" d="
	M480.805,668.044c42.311,1.038,84.416-6.229,123.932-21.389l-7.58-19.478c-33.57,13.079-69.229,19.988-105.258,20.394
	c-11.619,0.396-23.252-0.141-34.785-1.604l-1.65,20.473c8.416,0.883,16.865,1.431,25.324,1.644
	C480.787,668.083,480.809,668.044,480.805,668.044z"/>
<polygon id="_x34_" stroke="#FFFFFF" stroke-width="2" stroke-linecap="round" stroke-linejoin="round" stroke-miterlimit="10" points="
	658.73,353.52 642.7,381.65 606.76,361.16 621.82,335.86 640.28,344.69 "/>
<polygon id="_x33__1_" stroke="#FFFFFF" stroke-width="2" stroke-linecap="round" stroke-linejoin="round" stroke-miterlimit="10" points="
	267.53,117.588 275.45,110.248 281.027,118.876 286.917,127.395 292.961,135.581 299.341,143.688 309.859,156.004 320.67,167.494 
	289.44,178.695 "/>
<polygon id="_x32_" stroke="#FFFFFF" stroke-width="2" stroke-linecap="round" stroke-linejoin="round" stroke-miterlimit="10" points="
	214.653,183.784 225.372,167.121 238.164,149.807 256.575,192.862 240.953,199.587 "/>
<path id="_x31_" stroke="#FFFFFF" stroke-width="2" stroke-linecap="round" stroke-linejoin="round" stroke-miterlimit="10" d="
	M224.009,95.383c1.198-5.9,6.381-10.145,12.402-10.155l21.129-0.505c0.998-0.023,1.956,0.392,2.62,1.137
	c1.25,1.402,1.128,3.552-0.274,4.803c-22.239,19.837-41.853,42.435-58.365,67.244l-0.011,0.016L224.009,95.383"/>
</svg>
